<svg width="120" height="30" viewBox="0 0 120 30" fill="none" xmlns="http://www.w3.org/2000/svg">
<g clip-path="url(#clip0_1_2)">
<path d="M7.63878 2.25C12.1939 -0.379911 17.8061 -0.379911 22.3612 2.25C26.9164 4.87991 29.7224 9.7402 29.7224 15C29.7224 20.2598 26.9164 25.1201 22.3612 27.75C17.8061 30.3799 12.1939 30.3799 7.63878 27.75C3.08365 25.1201 0.277573 20.2598 0.277573 15C0.277573 9.7402 3.08365 4.87991 7.63878 2.25Z" fill="#F7C000"/>
<path d="M21 15C21 11.6863 18.3137 9 15 9C11.6863 9 9 11.6863 9 15C9 18.3137 11.6863 21 15 21C18.3137 21 21 18.3137 21 15Z" fill="#181C32"/>
<path d="M55.28 14.908C55.28 16.236 55.112 17.444 54.776 18.532C54.44 19.604 53.936 20.532 53.264 21.316C52.608 22.1 51.784 22.7 50.792 23.116C49.816 23.532 48.68 23.74 47.384 23.74C46.04 23.74 44.872 23.532 43.88 23.116C42.888 22.684 42.064 22.084 41.408 21.316C40.752 20.532 40.264 19.596 39.944 18.508C39.624 17.42 39.464 16.212 39.464 14.884C39.464 13.124 39.752 11.588 40.328 10.276C40.904 8.964 41.776 7.94 42.944 7.204C44.128 6.468 45.616 6.1 47.408 6.1C49.12 6.1 50.56 6.468 51.728 7.204C52.896 7.924 53.776 8.948 54.368 10.276C54.976 11.588 55.28 13.132 55.28 14.908ZM41.744 14.908C41.744 16.348 41.944 17.588 42.344 18.628C42.744 19.668 43.36 20.468 44.192 21.028C45.04 21.588 46.104 21.868 47.384 21.868C48.68 21.868 49.736 21.588 50.552 21.028C51.384 20.468 52 19.668 52.4 18.628C52.8 17.588 53 16.348 53 14.908C53 12.748 52.552 11.06 51.656 9.844C50.76 8.612 49.344 7.996 47.408 7.996C46.112 7.996 45.04 8.276 44.192 8.836C43.36 9.38 42.744 10.172 42.344 11.212C41.944 12.236 41.744 13.468 41.744 14.908ZM67.166 19.948C67.166 20.78 66.958 21.476 66.542 22.036C66.126 22.596 65.534 23.02 64.766 23.308C63.998 23.596 63.086 23.74 62.03 23.74C61.134 23.74 60.358 23.668 59.702 23.524C59.062 23.38 58.494 23.18 57.998 22.924V21.004C58.51 21.26 59.126 21.5 59.846 21.724C60.582 21.932 61.326 22.036 62.078 22.036C63.15 22.036 63.926 21.868 64.406 21.532C64.886 21.18 65.126 20.716 65.126 20.14C65.126 19.82 65.038 19.532 64.862 19.276C64.686 19.02 64.366 18.764 63.902 18.508C63.454 18.252 62.806 17.964 61.958 17.644C61.126 17.324 60.414 17.004 59.822 16.684C59.23 16.364 58.774 15.98 58.454 15.532C58.134 15.084 57.974 14.508 57.974 13.804C57.974 12.716 58.414 11.876 59.294 11.284C60.19 10.692 61.358 10.396 62.798 10.396C63.582 10.396 64.31 10.476 64.982 10.636C65.67 10.78 66.31 10.988 66.902 11.26L66.182 12.94C65.83 12.78 65.454 12.644 65.054 12.532C64.67 12.404 64.278 12.308 63.878 12.244C63.478 12.164 63.07 12.124 62.654 12.124C61.79 12.124 61.126 12.268 60.662 12.556C60.214 12.828 59.99 13.204 59.99 13.684C59.99 14.036 60.094 14.34 60.302 14.596C60.51 14.836 60.854 15.076 61.334 15.316C61.83 15.54 62.486 15.812 63.302 16.132C64.118 16.436 64.814 16.748 65.39 17.068C65.966 17.388 66.406 17.78 66.71 18.244C67.014 18.692 67.166 19.26 67.166 19.948ZM78.5784 16.228C78.4824 15.892 78.3864 15.564 78.2904 15.244C78.1944 14.908 78.1064 14.596 78.0264 14.308C77.9624 14.004 77.8984 13.724 77.8344 13.468C77.7704 13.212 77.7224 12.996 77.6904 12.82H77.5944C77.5624 12.996 77.5144 13.212 77.4504 13.468C77.4024 13.724 77.3384 14.004 77.2584 14.308C77.1944 14.612 77.1144 14.932 77.0184 15.268C76.9384 15.588 76.8424 15.916 76.7304 16.252L74.4264 23.476H72.0264L68.4984 10.612H70.6824L72.4584 17.476C72.5864 17.94 72.7064 18.412 72.8184 18.892C72.9304 19.356 73.0264 19.804 73.1064 20.236C73.2024 20.652 73.2664 21.012 73.2984 21.316H73.3944C73.4424 21.124 73.4984 20.884 73.5624 20.596C73.6264 20.308 73.6904 20.004 73.7544 19.684C73.8344 19.364 73.9144 19.044 73.9944 18.724C74.0904 18.404 74.1784 18.116 74.2584 17.86L76.5384 10.612H78.8424L81.0504 17.86C81.1624 18.228 81.2744 18.62 81.3864 19.036C81.5144 19.452 81.6264 19.86 81.7224 20.26C81.8184 20.644 81.8824 20.988 81.9144 21.292H82.0104C82.0424 21.02 82.0984 20.684 82.1784 20.284C82.2744 19.868 82.3784 19.42 82.4904 18.94C82.6184 18.444 82.7464 17.956 82.8744 17.476L84.6744 10.612H86.8344L83.2584 23.476H80.7864L78.5784 16.228ZM94.0136 10.42C95.5816 10.42 96.7416 10.764 97.4936 11.452C98.246 12.14 98.622 13.236 98.622 14.74V23.5H97.0856L96.6776 21.676H96.5816C96.2136 22.14 95.8296 22.532 95.4296 22.852C95.0456 23.156 94.5976 23.38 94.0856 23.524C93.5896 23.668 92.9816 23.74 92.2616 23.74C91.4936 23.74 90.7976 23.604 90.1736 23.332C89.5656 23.06 89.0856 22.644 88.7336 22.084C88.3816 21.508 88.2056 20.788 88.2056 19.924C88.2056 18.644 88.7096 17.66 89.7176 16.972C90.7256 16.268 92.2776 15.884 94.3736 15.82L96.5576 15.748V14.98C96.5576 13.908 96.3256 13.164 95.8616 12.748C95.3976 12.332 94.7416 12.124 93.8936 12.124C93.2216 12.124 92.5816 12.228 91.9736 12.436C91.3656 12.628 90.7976 12.852 90.2696 13.108L89.6216 11.524C90.1816 11.22 90.8456 10.964 91.6136 10.756C92.3816 10.532 93.1816 10.42 94.0136 10.42ZM94.6376 17.284C93.0376 17.348 91.9256 17.604 91.3016 18.052C90.6936 18.5 90.3896 19.132 90.3896 19.948C90.3896 20.668 90.6056 21.196 91.0376 21.532C91.4856 21.868 92.0536 22.036 92.7416 22.036C93.8296 22.036 94.7336 21.74 95.4536 21.148C96.1736 20.54 96.5336 19.612 96.5336 18.364V17.212L94.6376 17.284ZM104.707 23.5H102.595V5.26H104.707V23.5ZM113.342 23.74C111.742 23.74 110.462 23.188 109.502 22.084C108.542 20.964 108.062 19.3 108.062 17.092C108.062 14.884 108.542 13.22 109.502 12.1C110.478 10.964 111.766 10.396 113.366 10.396C114.038 10.396 114.622 10.484 115.118 10.66C115.614 10.82 116.046 11.044 116.414 11.332C116.782 11.62 117.094 11.94 117.35 12.292H117.494C117.478 12.084 117.446 11.78 117.398 11.38C117.366 10.964 117.35 10.636 117.35 10.396V5.26H119.462V23.5H117.758L117.446 21.772H117.35C117.094 22.14 116.782 22.476 116.414 22.78C116.046 23.068 115.606 23.3 115.094 23.476C114.598 23.652 114.014 23.74 113.342 23.74ZM113.678 21.988C115.038 21.988 115.99 21.62 116.534 20.884C117.094 20.132 117.374 19.004 117.374 17.5V17.116C117.374 15.516 117.11 14.292 116.582 13.444C116.054 12.58 115.078 12.148 113.654 12.148C112.518 12.148 111.662 12.604 111.086 13.516C110.526 14.412 110.246 15.62 110.246 17.14C110.246 18.676 110.526 19.868 111.086 20.716C111.662 21.564 112.526 21.988 113.678 21.988Z" fill="white"/>
</g>
<defs>
<clipPath id="clip0_1_2">
<rect width="120" height="30" fill="white"/>
</clipPath>
</defs>
</svg>
