<svg width="62" height="18" viewBox="0 0 62 18" fill="none" xmlns="http://www.w3.org/2000/svg">
<path d="M7.328 1.736C8.4 1.736 9.376 1.872 10.256 2.144C11.136 2.4 11.856 2.784 12.416 3.296C13.424 4.208 14.128 5.208 14.528 6.296C14.944 7.368 15.152 8.744 15.152 10.424C15.152 10.776 15.104 11.096 15.008 11.384C14.928 11.672 14.792 12.04 14.6 12.488C14.36 12.984 14.216 13.376 14.168 13.664C13.848 14.224 13.32 14.76 12.584 15.272C11.864 15.784 11.08 16.2 10.232 16.52C9.384 16.84 8.64 17 8 17C4.912 17 2.712 15.944 1.4 13.832C1.032 13.24 0.744 12.624 0.536 11.984C0.344 11.344 0.248 10.72 0.248 10.112C0.248 8.48 0.536 7.064 1.112 5.864C1.704 4.648 2.52 3.704 3.56 3.032C4.184 2.664 4.832 2.36 5.504 2.12C6.192 1.864 6.8 1.736 7.328 1.736ZM2.744 10.184C2.744 11.048 2.936 11.76 3.32 12.32C3.72 12.88 4.328 13.488 5.144 14.144C5.816 14.4 6.272 14.568 6.512 14.648C6.752 14.712 7.024 14.744 7.328 14.744C8.944 14.744 10.232 14.304 11.192 13.424C12.152 12.544 12.632 11.336 12.632 9.8C12.632 8.584 12.496 7.624 12.224 6.92C11.952 6.216 11.464 5.584 10.76 5.024C10.392 4.72 9.92 4.496 9.344 4.352C8.784 4.208 8.176 4.136 7.52 4.136C6.528 4.136 5.672 4.432 4.952 5.024C4.232 5.6 3.68 6.352 3.296 7.28C2.928 8.208 2.744 9.176 2.744 10.184ZM20.3506 13.28C20.3506 13.888 20.4386 14.36 20.6146 14.696C20.8066 15.016 21.0466 15.176 21.3346 15.176C21.4946 15.176 21.6466 15.168 21.7906 15.152C21.9346 15.12 22.0786 15.104 22.2226 15.104C22.3826 15.104 22.5186 15.184 22.6306 15.344C22.7586 15.504 22.8226 15.68 22.8226 15.872C22.8226 16.256 22.6386 16.56 22.2706 16.784C21.9186 16.992 21.4386 17.096 20.8306 17.096C20.3986 17.096 19.9586 16.968 19.5106 16.712C19.0786 16.44 18.7186 16.024 18.4306 15.464C18.1426 14.888 17.9986 14.176 17.9986 13.328C17.9986 11.504 18.0306 9.96 18.0946 8.696C18.1746 7.192 18.2146 5.296 18.2146 3.008C18.2146 2.288 18.2546 1.784 18.3346 1.496C18.4306 1.272 18.5826 1.104 18.7906 0.991999C19.0146 0.863999 19.2466 0.8 19.4866 0.8C19.7266 0.8 19.9346 0.84 20.1106 0.92C20.3026 1 20.4306 1.128 20.4946 1.304C20.5586 1.496 20.5986 1.688 20.6146 1.88C20.6466 2.056 20.6626 2.312 20.6626 2.648C20.6626 3.304 20.6386 3.936 20.5906 4.544C20.5586 5.28 20.5426 5.816 20.5426 6.152C20.4146 8.968 20.3506 11.344 20.3506 13.28ZM25.6835 1.592C26.2435 1.64 26.7315 1.792 27.1475 2.048C27.5635 2.288 27.7715 2.656 27.7715 3.152C27.7715 3.52 27.5955 3.816 27.2435 4.04C26.9075 4.248 26.4995 4.352 26.0195 4.352C25.5555 4.352 25.2355 4.232 25.0595 3.992C24.8835 3.752 24.7955 3.504 24.7955 3.248C24.7955 2.768 24.8435 2.368 24.9395 2.048C25.0515 1.728 25.2995 1.576 25.6835 1.592ZM27.6035 12.224V12.92C27.6035 13.544 27.6195 14.136 27.6515 14.696C27.6995 15.24 27.7555 15.792 27.8195 16.352C27.8035 16.512 27.6835 16.68 27.4595 16.856C27.2355 17.016 27.0355 17.096 26.8595 17.096C26.5555 17.096 26.2435 17.04 25.9235 16.928C25.6195 16.8 25.4355 16.648 25.3715 16.472C25.2755 15.96 25.2275 15.504 25.2275 15.104C25.2275 13.792 25.1875 12.32 25.1075 10.688C25.0435 9.248 25.0115 8.24 25.0115 7.664C25.0115 7.376 25.1555 7.128 25.4435 6.92C25.7315 6.712 26.0355 6.608 26.3555 6.608C26.8195 6.608 27.1395 6.712 27.3155 6.92C27.5075 7.128 27.6035 7.456 27.6035 7.904V12.224ZM36.1681 10.832C36.2161 10.704 36.3841 10.24 36.6721 9.44C36.9761 8.64 37.2561 8.032 37.5121 7.616C37.9281 6.96 38.2961 6.632 38.6161 6.632C39.0641 6.632 39.4081 6.72 39.6481 6.896C39.8881 7.056 40.0081 7.288 40.0081 7.592C40.0081 7.736 39.9441 7.936 39.8161 8.192C39.7041 8.448 39.6401 8.6 39.6241 8.648C38.9841 10.056 38.4081 11.568 37.8961 13.184L37.3921 15.056C37.2001 15.664 36.8721 16.16 36.4081 16.544C35.9441 16.912 35.4001 17.096 34.7761 17.096C34.2161 17.096 33.6961 16.84 33.2161 16.328C32.9281 15.88 32.6241 15.312 32.3041 14.624C32.0001 13.936 31.7361 13.264 31.5121 12.608L30.6721 10.088C30.4961 9.592 30.3521 9.168 30.2401 8.816C30.1441 8.464 30.0961 8.144 30.0961 7.856C30.0801 7.52 30.1761 7.248 30.3841 7.04C30.5921 6.832 30.8801 6.728 31.2481 6.728C31.6641 6.728 31.9601 6.816 32.1361 6.992C32.3121 7.152 32.4721 7.408 32.6161 7.76C32.6801 8.128 32.8561 8.88 33.1441 10.016L33.3121 10.688C33.4561 11.232 33.6401 11.784 33.8641 12.344C34.0881 12.904 34.3121 13.44 34.5361 13.952C34.5041 13.872 34.6161 14.136 34.8721 14.744C35.0321 14.28 35.2161 13.712 35.4241 13.04L36.1681 10.832ZM41.4695 11.504C41.4695 10.528 41.6855 9.72 42.1175 9.08C42.5495 8.424 43.1495 7.808 43.9175 7.232C44.1415 7.072 44.5175 6.936 45.0455 6.824C45.5735 6.696 46.0375 6.632 46.4375 6.632C46.9175 6.632 47.4215 6.736 47.9495 6.944C48.4935 7.136 48.9335 7.36 49.2695 7.616C49.8615 8.048 50.2695 8.552 50.4935 9.128C50.7175 9.688 50.8295 10.36 50.8295 11.144C50.8295 11.48 50.6375 11.808 50.2535 12.128C49.8855 12.432 49.4855 12.584 49.0535 12.584L48.1415 12.56C47.6775 12.56 47.0135 12.576 46.1495 12.608L45.6455 12.632C45.2935 12.664 45.0295 12.68 44.8535 12.68C44.5975 12.68 44.2455 12.648 43.7975 12.584C43.8615 13.336 44.1415 13.928 44.6375 14.36C45.1335 14.776 45.6695 14.984 46.2455 14.984C47.2535 14.984 47.9575 14.784 48.3575 14.384C48.6935 14.144 48.9175 13.992 49.0295 13.928C49.1415 13.864 49.3175 13.832 49.5575 13.832C49.8135 13.832 50.0375 13.952 50.2295 14.192C50.4215 14.432 50.5175 14.672 50.5175 14.912C50.5175 15.184 50.3495 15.464 50.0135 15.752C49.6935 16.024 49.2535 16.312 48.6935 16.616C48.3895 16.744 47.9735 16.856 47.4455 16.952C46.9175 17.048 46.4775 17.096 46.1255 17.096C45.5655 17.096 44.9415 16.936 44.2535 16.616C43.5655 16.28 43.0535 15.912 42.7175 15.512C42.3815 15.112 42.0855 14.544 41.8295 13.808C41.5895 13.072 41.4695 12.304 41.4695 11.504ZM46.2455 10.856C47.3815 10.856 48.2135 10.816 48.7415 10.736C48.7095 10.272 48.5655 9.896 48.3095 9.608C48.0535 9.304 47.7015 9.048 47.2535 8.84C47.1095 8.776 46.9815 8.728 46.8695 8.696C46.7575 8.664 46.6295 8.648 46.4855 8.648C45.7495 8.648 45.1255 8.848 44.6135 9.248C44.1175 9.648 43.8215 10.16 43.7255 10.784C44.5255 10.832 45.3655 10.856 46.2455 10.856ZM56.4361 16.04C56.4041 16.312 56.2921 16.552 56.1001 16.76C55.9081 16.968 55.6601 17.072 55.3561 17.072C54.8761 17.072 54.5241 16.984 54.3001 16.808C54.0761 16.616 53.9641 16.272 53.9641 15.776C53.9641 15.104 54.0041 14.368 54.0841 13.568C54.1481 12.64 54.1801 11.928 54.1801 11.432C54.1801 11.176 54.1641 10.856 54.1321 10.472C54.1001 10.12 54.0841 9.856 54.0841 9.68C54.0361 9.408 53.9241 9.192 53.7481 9.032C53.5881 8.872 53.3321 8.736 52.9801 8.624C52.8361 8.56 52.7161 8.456 52.6201 8.312C52.5241 8.152 52.4761 8.008 52.4761 7.88C52.4761 7.512 52.6201 7.232 52.9081 7.04C53.1961 6.848 53.5481 6.752 53.9641 6.752C54.4281 6.752 54.8281 6.912 55.1641 7.232C55.5001 7.552 55.7561 7.952 55.9321 8.432C56.3001 7.904 56.7481 7.48 57.2761 7.16C57.8201 6.84 58.3481 6.68 58.8601 6.68C59.5161 6.68 60.0681 6.792 60.5161 7.016C60.9801 7.224 61.2121 7.592 61.2121 8.12C61.2121 8.424 61.0761 8.744 60.8041 9.08C60.5481 9.4 60.2841 9.56 60.0121 9.56C59.8041 9.56 59.5561 9.464 59.2681 9.272C59.1561 9.192 59.0281 9.128 58.8841 9.08C58.7561 9.016 58.6201 8.984 58.4761 8.984C58.2201 8.984 57.9801 9.024 57.7561 9.104C57.5321 9.184 57.3801 9.28 57.3001 9.392C57.0441 9.792 56.8521 10.152 56.7241 10.472C56.6121 10.792 56.5561 11.136 56.5561 11.504C56.5561 11.776 56.5481 11.992 56.5321 12.152L56.5081 13.52L56.5321 14.432C56.5321 15.104 56.5001 15.64 56.4361 16.04Z" fill="#3F4254"/>
</svg>